<?xml version="1.0" encoding="UTF-8"?>
<svg width="24px" height="24px" viewBox="0 0 24 24" version="1.1" xmlns="http://www.w3.org/2000/svg" xmlns:xlink="http://www.w3.org/1999/xlink">
    <title>Icon/Phone</title>
    <g id="Navigator" stroke="none" stroke-width="1" fill="none" fill-rule="evenodd">
        <g id="List-view-(Google)" transform="translate(-40, -319)">
            <g id="List-item" transform="translate(40, 217)">
                <g id="Icon/Phone" transform="translate(0, 102)">
                    <polygon id="Stroke-1" points="0 0 23.999999 0 23.999999 23.999999 0 23.999999"></polygon>
                    <path d="M8.21799991,9.33499944 C8.09400031,9.05399936 8.16700031,8.72499988 8.3840003,8.50799989 L9.20300045,7.69000004 C9.87399991,7.01900008 9.87399991,6.07000024 9.28800054,5.48399987 L8.11400081,4.31000014 C7.33300066,3.52900029 6.06700094,3.52900029 5.28600088,4.31000014 L4.63400102,4.9620001 C3.89300107,5.70300016 3.58400108,6.77199989 3.78400117,7.83199983 C4.27800104,10.4449991 5.79600105,13.305999 8.24500031,15.7549992 C10.6939996,18.2039989 13.5549995,19.7219988 16.1680002,20.2159988 C17.228,20.4159988 18.2969999,20.1069988 19.0380009,19.3659978 L19.6890018,18.7149989 C20.4700018,17.9339989 20.4700018,16.6679983 19.6890018,15.8869991 L18.5160019,14.7139988 C17.9300009,14.1279995 16.980002,14.1279995 16.3950014,14.7139988 L15.4920016,15.6179991 C15.2750016,15.834999 14.9460021,15.907999 14.6650019,15.7839995 C13.3360015,15.1969996 12.0260022,14.3139992 10.8560021,13.1439993 C9.68599932,11.9739993 8.80399937,10.663999 8.21799991,9.33499944 Z" id="Stroke-3" stroke="#272727" stroke-width="1.5" stroke-linecap="round" stroke-linejoin="round"></path>
                </g>
            </g>
        </g>
    </g>
</svg>